# xmcd
#
# Track frame offsets: 
#        150
#        17598
#        34046
#        52828
#        68422
#        88434
#        106175
#        122252
#        131817
#        145695
#        162850
#        179700
#        197833
#        213376
#
# Disc length: 3086 seconds
#
# Revision: 2
# Processed by: cddbd v1.5.2PL0 Copyright (c) Steve Scherf et al.
# Submitted via: ExactAudioCopy v0.99pb5
#
DISCID=bd0c0c0e
DTITLE=Tok Tok Tok - She and he
DYEAR=2008
DGENRE=Jazz
TTITLE0=Although he hurts me
TTITLE1=The daydream
TTITLE2=The love we share
TTITLE3=Longing for Brad
TTITLE4=Lewis and Ruth
TTITLE5=As we are
TTITLE6=The game is over
TTITLE7=Coracao
TTITLE8=Crash crush
TTITLE9=Living hell
TTITLE10=Our little song
TTITLE11=She and he
TTITLE12=Vertigo
TTITLE13=Harmless in the beginning
EXTD=YEAR: 2008
EXTT0=
EXTT1=
EXTT2=
EXTT3=
EXTT4=
EXTT5=
EXTT6=
EXTT7=
EXTT8=
EXTT9=
EXTT10=
EXTT11=
EXTT12=
EXTT13=
PLAYORDER=
